Online Info
_________ 
http://www.imdb.com/title/tt1368860/ 
http://www.imdb.com/video/wab/vi1116865561/
Release Date: (2010)
Genre: Drama
Plot: Hearts Break. Lives End. The Sun Always Rises.


General Info
__________
Format : AVI
Format/Info : Audio Video Interleave
File size : 691 MiB
Duration : 1h 36mn
Overall bit rate : 1 004 Kbps


Video
_____
ID : 0
Format : MPEG-4 Visual
Format profile : Advanced Simple@L5
Format settings, BVOP : 1
Format settings, QPel : No
Format settings, GMC : No warppoints
Format settings, Matrix : Custom
Codec ID : XVID
Codec ID/Hint : XviD
Duration : 1h 36mn
Bit rate : 864 Kbps
Width : 640 pixels
Height : 272 pixels
Display aspect ratio : 2.35:1
Frame rate : 25.000 fps
Color space : YUV
Chroma subsampling : 4:2:0
Bit depth : 8 bits
Scan type : Progressive
Compression mode : Lossy
Bits/(Pixel*Frame) : 0.199
Stream size : 595 MiB (86%)
Writing library : XviD 64


Audio
_____
ID : 1
Format : MPEG Audio
Format version : Version 1
Format profile : Layer 3
Mode : Joint stereo
Mode extension : MS Stereo
Codec ID : 55
Codec ID/Hint : MP3
Duration : 1h 36mn
Bit rate mode : Variable
Bit rate : 128 Kbps
Channel(s) : 2 channels
Sampling rate : 48.0 KHz
Compression mode : Lossy
Stream size : 87.5 MiB (13%)
Alignment : Aligned on interleaves
Interleave, duration : 24 ms (0.60 video frame)
Interleave, preload duration : 145 ms


Notes
_____
Encoded By: Smallz

Looking for cammers or suppliers who can bring unreleased movies/games/etc

servers, accounts, etc


Greetz
______
Thanks to 26k, HDscene, BTVRG, FYI, Noir, and everyone else we respect

special shout out to everyone at the underground